HIERARCHY
ROOT Hips
{
	OFFSET	0.0082	2.8844	-0.0056
	CHANNELS 6 Xposition Yposition Zposition Zrotation Xrotation Yrotation
	JOINT Spine0
	{
		OFFSET	0.0000	0.2768	0.0473
		CHANNELS 3 Zrotation Xrotation Yrotation
		JOINT Spine1
		{
			OFFSET	0.0000	0.4876	-0.0050
			CHANNELS 3 Zrotation Xrotation Yrotation
			JOINT Neck
			{
				OFFSET	0.0000	0.4163	-0.1306
				CHANNELS 3 Zrotation Xrotation Yrotation
				JOINT Head
				{
					OFFSET	0.0000	0.1302	0.0278
					CHANNELS 3 Zrotation Xrotation Yrotation
					End Site 
					{
						OFFSET	0.0000	0.7443	0.0037
					}
				}
			}
			JOINT LeftShoulder
			{  
				OFFSET	0.1842	0.3056	-0.1138
				CHANNELS 3 Zrotation Xrotation Yrotation
				JOINT LeftUpArm
				{
					OFFSET	0.3697	-0.0334	-0.0538
					CHANNELS 3 Zrotation Xrotation Yrotation
					JOINT LeftLowArm
					{
						OFFSET	0.8306	0.0000	0.0000
						CHANNELS 3 Zrotation Xrotation Yrotation
						JOINT LeftHand
						{
							OFFSET	0.8362	0.0000	0.0000
							CHANNELS 3 Zrotation Xrotation Yrotation
							JOINT LeftFinger
							{
								OFFSET	0.3140	0.0147	0.0814
								CHANNELS 3 Zrotation Xrotation Yrotation
								End Site 
								{
									OFFSET	0.1613	0.0000	0.0000
								}
							}
						}
					}
				}
			}
			JOINT RightShoulder
			{  
				OFFSET	-0.1843	0.3056	-0.1138
				CHANNELS 3 Zrotation Xrotation Yrotation
				JOINT RightUpArm
				{
					OFFSET	-0.3696	-0.0334	-0.0538
					CHANNELS 3 Zrotation Xrotation Yrotation
					JOINT RightLowArm
					{
						OFFSET	-0.8306	0.0000	0.0000
						CHANNELS 3 Zrotation Xrotation Yrotation
						JOINT RightHand
						{
							OFFSET	-0.8362	0.0000	0.0000
							CHANNELS 3 Zrotation Xrotation Yrotation
							JOINT RightFinger
							{
								OFFSET	-0.3118	0.0184	0.0812
								CHANNELS 3 Zrotation Xrotation Yrotation
								End Site 
								{
									OFFSET	-0.1665	0.0000	0.0000
								}
							}
						}
					}
				}
			}
		}
	}
	JOINT LeftUpLeg
	{
		OFFSET	0.2890	-0.0982	0.0000
		CHANNELS 3 Zrotation Xrotation Yrotation
		JOINT LeftLowLeg
		{
			OFFSET	0.0000	-1.2519	-0.0519
			CHANNELS 3 Zrotation Xrotation Yrotation
			JOINT LeftFoot
			{
				OFFSET	-0.0004	-1.1757	-0.0254
				CHANNELS 3 Zrotation Xrotation Yrotation
				JOINT LeftToe
				{
					OFFSET	0.0055	-0.3658	0.2485
					CHANNELS 3 Zrotation Xrotation Yrotation
					End Site 
					{
						OFFSET	-0.0001	0.0000	0.3810
					}
				}
			}
		}
	}

	JOINT RightUpLeg
	{
		OFFSET	-0.2890	-0.0982	0.0000
		CHANNELS 3 Zrotation Xrotation Yrotation
		JOINT RightLowLeg
		{
			OFFSET	0.0000	-1.2519	-0.0519
			CHANNELS 3 Zrotation Xrotation Yrotation
			JOINT RightFoot
			{
				OFFSET	-0.0004	-1.1757	-0.0254
				CHANNELS 3 Zrotation Xrotation Yrotation
				JOINT RightToe
				{
					OFFSET	0.0055	-0.3658	0.2485
					CHANNELS 3 Zrotation Xrotation Yrotation
					End Site 
					{
						OFFSET	0.0000	0.0000	0.3810
					}
				}
			}
		}
	}
}

MOTION
Frames:	17
Frame Time:	0.01667
0.0041 2.9233 0.0595 -10.8150 -341.5158 -142.5316 0.0000 0.0000 0.0000 -6.2179 -2.2405 -6.6218 0.0000 0.0000 0.0000 -30.6276 -356.4525 -347.1288 0.0000 0.0000 0.0000 -68.6329 -311.2375 -353.9111 -293.6731 -23.1267 -36.4934 -33.0428 -350.6093 -3.7750 0.0000 0.0000 0.0000 0.0000 0.0000 0.0000 -285.4153 -309.9290 -357.8339 -73.9076 -14.6906 -351.3069 -319.8834 -340.3391 -289.6016 0.0000 0.0000 0.0000 -335.7689 -67.4247 -341.0331 -113.1035 -284.2337 -241.1136 -2.7233 -8.0310 -24.0629 0.0000 0.0000 0.0000 -49.2057 -53.9222 -45.2388 -176.6630 -278.4384 -166.2776 -356.2176 -7.8818 -13.0621 0.0000 0.0000 0.0000
0.0037 2.9232 0.0593 -10.7803 -341.5085 -142.5486 0.0000 0.0000 0.0000 -6.2952 -2.2341 -6.5747 0.0000 0.0000 0.0000 -30.8778 -356.6624 -346.9427 0.0000 0.0000 0.0000 -68.7496 -311.5522 -353.8296 -293.8457 -23.6006 -36.5840 -33.2909 -349.8115 -3.8159 0.0000 0.0000 0.0000 0.0000 0.0000 0.0000 -285.5494 -309.7788 -357.7778 -73.6602 -14.5593 -351.4203 -320.1843 -340.0372 -289.6678 0.0000 0.0000 0.0000 -335.7615 -67.4554 -341.0534 -113.0975 -284.2342 -241.1044 -2.7168 -8.0192 -24.0626 0.0000 0.0000 0.0000 -49.2057 -53.9222 -45.2388 -176.8681 -278.4424 -166.0442 -356.2402 -7.8857 -13.0685 0.0000 0.0000 0.0000
0.0040 2.9233 0.0592 -10.7732 -341.5079 -142.5803 0.0000 0.0000 0.0000 -6.3868 -2.2249 -6.5148 0.0000 0.0000 0.0000 -30.9390 -356.8195 -346.8411 0.0000 0.0000 0.0000 -68.8267 -312.0887 -353.6908 -294.2790 -24.1545 -37.7467 -33.6470 -349.3358 -3.1038 0.0000 0.0000 0.0000 0.0000 0.0000 0.0000 -285.5006 -309.7112 -357.7715 -73.5346 -14.3361 -351.4708 -320.9109 -340.2172 -289.4035 0.0000 0.0000 0.0000 -335.6823 -67.4502 -340.9640 -113.1815 -284.2343 -240.9684 -2.7383 -8.0146 -24.0932 0.0000 0.0000 0.0000 -49.1422 -53.9558 -45.1876 -176.8171 -278.4281 -166.1094 -356.2192 -7.8831 -13.0770 0.0000 0.0000 0.0000
0.0035 2.9234 0.0592 -10.7291 -341.5035 -142.6021 0.0000 0.0000 0.0000 -6.4437 -2.2219 -6.4667 0.0000 0.0000 0.0000 -31.0448 -357.0059 -346.7286 0.0000 0.0000 0.0000 -68.7426 -312.3008 -353.7213 -294.5229 -24.4192 -38.1791 -33.8455 -349.0853 -2.8627 0.0000 0.0000 0.0000 0.0000 0.0000 0.0000 -285.5540 -309.5882 -357.7476 -73.3868 -14.2179 -351.5966 -321.3677 -340.1669 -289.3400 0.0000 0.0000 0.0000 -335.6432 -67.4615 -340.9505 -113.1222 -284.1970 -241.0149 -2.7659 -7.9855 -24.0939 0.0000 0.0000 0.0000 -49.1371 -53.9625 -45.2191 -176.7199 -278.4218 -166.1798 -356.2568 -7.8684 -13.1147 0.0000 0.0000 0.0000
0.0027 2.9233 0.0594 -10.6590 -341.4888 -142.6801 0.0000 0.0000 0.0000 -6.5488 -2.2103 -6.3341 0.0000 0.0000 0.0000 -31.1477 -357.3561 -346.5659 0.0000 0.0000 0.0000 -68.5794 -312.7053 -353.8254 -294.8782 -24.6037 -38.7079 -34.0195 -348.7150 -2.8090 0.0000 0.0000 0.0000 0.0000 0.0000 0.0000 -285.6254 -309.3564 -357.7156 -73.1594 -14.0179 -351.8414 -322.0675 -340.0671 -289.2134 0.0000 0.0000 0.0000 -335.4639 -67.4441 -340.7834 -113.1139 -284.1667 -240.9825 -2.7666 -7.9956 -24.1430 0.0000 0.0000 0.0000 -49.0650 -53.9981 -45.1769 -176.7603 -278.4140 -166.0784 -356.1966 -7.9053 -13.1346 0.0000 0.0000 0.0000
0.0016 2.9233 0.0591 -10.6264 -341.4781 -142.7240 0.0000 0.0000 0.0000 -6.5865 -2.1899 -6.2655 0.0000 0.0000 0.0000 -31.1848 -357.5226 -346.5168 0.0000 0.0000 0.0000 -68.4928 -312.8618 -353.8887 -295.2795 -25.2258 -39.1607 -34.3411 -348.2752 -2.4589 0.0000 0.0000 0.0000 0.0000 0.0000 0.0000 -285.7727 -309.0472 -357.7116 -73.0602 -14.0904 -352.1521 -322.3627 -340.0566 -289.1492 0.0000 0.0000 0.0000 -335.3766 -67.4138 -340.6949 -113.0975 -284.1648 -240.9613 -2.7337 -8.0352 -24.1859 0.0000 0.0000 0.0000 -49.0261 -54.0050 -45.1532 -176.9657 -278.3944 -165.8614 -356.2337 -7.8908 -13.1717 0.0000 0.0000 0.0000
0.0013 2.9234 0.0588 -10.5351 -341.4572 -142.7997 0.0000 0.0000 0.0000 -6.6311 -2.1540 -6.2086 0.0000 0.0000 0.0000 -31.2020 -357.8248 -346.4444 0.0000 0.0000 0.0000 -68.3525 -313.1267 -354.0232 -295.7538 -25.6957 -39.5582 -34.5532 -347.7701 -2.1962 0.0000 0.0000 0.0000 0.0000 0.0000 0.0000 -285.8643 -308.7609 -357.6716 -72.9403 -13.8873 -352.4863 -322.9700 -340.0648 -289.0468 0.0000 0.0000 0.0000 -335.2346 -67.4190 -340.5716 -113.1460 -284.1496 -240.8400 -2.7257 -8.0421 -24.2248 0.0000 0.0000 0.0000 -48.9876 -54.0338 -45.1599 -177.2243 -278.3891 -165.5680 -356.1978 -7.8942 -13.1382 0.0000 0.0000 0.0000
0.0006 2.9231 0.0587 -10.4743 -341.4264 -142.8813 0.0000 0.0000 0.0000 -6.6205 -2.1287 -6.1470 0.0000 0.0000 0.0000 -31.1907 -357.9458 -346.4406 0.0000 0.0000 0.0000 -68.3011 -313.2332 -354.0855 -295.8747 -25.8853 -39.7346 -34.6945 -347.6071 -2.0826 0.0000 0.0000 0.0000 0.0000 0.0000 0.0000 -285.9508 -308.6341 -357.6222 -72.8970 -13.8798 -352.6297 -323.0938 -340.0612 -289.0157 0.0000 0.0000 0.0000 -335.0904 -67.4065 -340.4588 -113.1290 -284.1334 -240.8312 -2.7138 -8.0372 -24.2145 0.0000 0.0000 0.0000 -48.9077 -54.0605 -45.1278 -177.1921 -278.3827 -165.5685 -356.2077 -7.8967 -13.1694 0.0000 0.0000 0.0000
-0.0003 2.9232 0.0585 -10.4209 -341.4251 -142.9080 0.0000 0.0000 0.0000 -6.6806 -2.0545 -6.1153 0.0000 0.0000 0.0000 -31.1488 -358.1025 -346.5149 0.0000 0.0000 0.0000 -68.1265 -313.3019 -354.3044 -296.2571 -26.2176 -39.9155 -34.7815 -347.1712 -1.8507 0.0000 0.0000 0.0000 0.0000 0.0000 0.0000 -286.0093 -308.5929 -357.5093 -72.8708 -13.8571 -352.7391 -323.2042 -340.0342 -288.9795 0.0000 0.0000 0.0000 -335.1257 -67.4417 -340.4791 -113.2181 -284.1063 -240.6859 -2.6862 -8.0662 -24.2214 0.0000 0.0000 0.0000 -48.9316 -54.0454 -45.1389 -177.6078 -278.3664 -165.0949 -356.2037 -7.8811 -13.1361 0.0000 0.0000 0.0000
-0.0011 2.9233 0.0585 -10.3617 -341.3995 -142.9548 0.0000 0.0000 0.0000 -6.6791 -1.9952 -6.0928 0.0000 0.0000 0.0000 -31.0746 -358.1397 -346.6347 0.0000 0.0000 0.0000 -68.0133 -313.3282 -354.4138 -296.3818 -26.3731 -39.9957 -34.8642 -347.0789 -1.8265 0.0000 0.0000 0.0000 0.0000 0.0000 0.0000 -286.1785 -308.3825 -357.4550 -72.8353 -13.9161 -352.9790 -323.3429 -339.9942 -288.9621 0.0000 0.0000 0.0000 -335.2101 -67.4769 -340.5715 -113.2628 -284.0875 -240.5562 -2.6534 -8.1090 -24.2161 0.0000 0.0000 0.0000 -48.9008 -54.0527 -45.1492 -177.8397 -278.3676 -164.8484 -356.1942 -7.8822 -13.1388 0.0000 0.0000 0.0000
-0.0022 2.9232 0.0583 -10.3112 -341.3816 -142.9727 0.0000 0.0000 0.0000 -6.6675 -1.9676 -6.0872 0.0000 0.0000 0.0000 -30.9948 -358.1255 -346.7322 0.0000 0.0000 0.0000 -67.9463 -313.2724 -354.5340 -296.6099 -26.5412 -40.0496 -34.8593 -346.8414 -1.7535 0.0000 0.0000 0.0000 0.0000 0.0000 0.0000 -286.2452 -308.2757 -357.4840 -72.8402 -13.9543 -353.1105 -323.3865 -339.9868 -288.9671 0.0000 0.0000 0.0000 -335.2342 -67.4958 -340.5947 -113.3275 -284.0359 -240.4704 -2.6402 -8.1193 -24.2008 0.0000 0.0000 0.0000 -48.9647 -54.0042 -45.2264 -177.9653 -278.3674 -164.6276 -356.1952 -7.8556 -13.1530 0.0000 0.0000 0.0000
-0.0032 2.9227 0.0582 -10.2640 -341.3386 -143.0434 0.0000 0.0000 0.0000 -6.6427 -1.8725 -6.0358 0.0000 0.0000 0.0000 -30.8359 -358.0766 -346.9162 0.0000 0.0000 0.0000 -67.8708 -313.2323 -354.6442 -296.6894 -26.6737 -40.0998 -34.8848 -346.7478 -1.6200 0.0000 0.0000 0.0000 0.0000 0.0000 0.0000 -286.3355 -308.2297 -357.3790 -72.8646 -14.0008 -353.1849 -323.4361 -339.9720 -288.9718 0.0000 0.0000 0.0000 -335.2115 -67.4938 -340.5736 -113.4963 -284.0054 -240.2453 -2.6091 -8.1713 -24.1956 0.0000 0.0000 0.0000 -48.9187 -54.0022 -45.1798 -178.5018 -278.3748 -164.0499 -356.2071 -7.8395 -13.1553 0.0000 0.0000 0.0000
-0.0034 2.9226 0.0578 -10.2450 -341.3289 -143.0680 0.0000 0.0000 0.0000 -6.6287 -1.8354 -6.0400 0.0000 0.0000 0.0000 -30.7484 -358.0051 -346.9805 0.0000 0.0000 0.0000 -67.8838 -313.2083 -354.6251 -296.7255 -26.6826 -40.1291 -34.8293 -346.7473 -1.6264 0.0000 0.0000 0.0000 0.0000 0.0000 0.0000 -286.3224 -308.1291 -357.4825 -72.9471 -14.1082 -353.2538 -323.4366 -339.9596 -288.9705 0.0000 0.0000 0.0000 -335.2142 -67.4932 -340.5720 -113.6018 -283.9834 -240.1558 -2.5919 -8.2096 -24.1571 0.0000 0.0000 0.0000 -48.9684 -53.9726 -45.2100 -178.6876 -278.3868 -163.8136 -356.1835 -7.8127 -13.1046 0.0000 0.0000 0.0000
-0.0043 2.9224 0.0573 -10.1976 -341.2993 -143.1304 0.0000 0.0000 0.0000 -6.5829 -1.7605 -6.0462 0.0000 0.0000 0.0000 -30.5549 -357.9556 -347.1676 0.0000 0.0000 0.0000 -67.8048 -313.1945 -354.7278 -296.7423 -26.7444 -40.1023 -34.8437 -346.6458 -1.6231 0.0000 0.0000 0.0000 0.0000 0.0000 0.0000 -286.4677 -308.0713 -357.3492 -73.0545 -14.1435 -353.3788 -323.3291 -339.9656 -288.9428 0.0000 0.0000 0.0000 -335.2310 -67.4999 -340.6032 -113.6611 -283.9083 -240.0356 -2.6091 -8.2222 -24.1481 0.0000 0.0000 0.0000 -48.9321 -53.9740 -45.1993 -179.0996 -278.3875 -163.3750 -356.2346 -7.7792 -13.1059 0.0000 0.0000 0.0000
-0.0048 2.9225 0.0568 -10.1703 -341.2977 -143.1691 0.0000 0.0000 0.0000 -6.5603 -1.7781 -6.0181 0.0000 0.0000 0.0000 -30.5549 -357.9556 -347.1676 0.0000 0.0000 0.0000 -67.8048 -313.1945 -354.7278 -296.7423 -26.7443 -40.1023 -34.8437 -346.6458 -1.6232 0.0000 0.0000 0.0000 0.0000 0.0000 0.0000 -286.4677 -308.0713 -357.3492 -73.0545 -14.1435 -353.3788 -323.3291 -339.9656 -288.9428 0.0000 0.0000 0.0000 -335.1293 -67.5002 -340.5167 -113.6611 -283.9082 -240.0356 -2.6091 -8.2222 -24.1481 0.0000 0.0000 0.0000 -48.8980 -54.0059 -45.1840 -179.0996 -278.3875 -163.3750 -356.2346 -7.7792 -13.1059 0.0000 0.0000 0.0000
-0.0048 2.9227 0.0562 -10.1875 -341.2784 -143.2560 0.0000 0.0000 0.0000 -6.5286 -1.6526 -6.0518 0.0000 0.0000 0.0000 -30.3059 -357.8536 -347.3236 0.0000 0.0000 0.0000 -67.6795 -313.1219 -354.8397 -296.7809 -26.7529 -39.9827 -34.7424 -346.6281 -1.6520 0.0000 0.0000 0.0000 0.0000 0.0000 0.0000 -286.6099 -308.0690 -357.1785 -73.1873 -14.1860 -353.3745 -323.1486 -340.0032 -288.9625 0.0000 0.0000 0.0000 -335.2348 -67.4859 -340.5800 -113.9597 -283.8721 -239.6434 -2.6248 -8.2889 -24.1117 0.0000 0.0000 0.0000 -48.9301 -53.9667 -45.1908 -179.3403 -278.4178 -163.0571 -356.2698 -7.7355 -13.0578 0.0000 0.0000 0.0000
-0.0060 2.9228 0.0554 -10.2259 -341.2785 -143.3367 0.0000 0.0000 0.0000 -6.5239 -1.5869 -6.0620 0.0000 0.0000 0.0000 -30.1162 -357.7632 -347.4095 0.0000 0.0000 0.0000 -67.6502 -313.1302 -354.8773 -296.7633 -26.7438 -39.9186 -34.7291 -346.6313 -1.6569 0.0000 0.0000 0.0000 0.0000 0.0000 0.0000 -286.6415 -308.0518 -357.1223 -73.3566 -14.3043 -353.4155 -322.9016 -340.0050 -288.9995 0.0000 0.0000 0.0000 -335.2090 -67.4330 -340.5055 -114.1262 -283.8430 -239.4685 -2.6441 -8.3544 -24.0935 0.0000 0.0000 0.0000 -48.8891 -54.0067 -45.0946 -179.3804 -278.4323 -162.9944 -356.2538 -7.7260 -13.0608 0.0000 0.0000 0.0000
